<?xml version="1.0" encoding="utf-8"?>
<!-- Generator: Adobe Illustrator 25.2.3, SVG Export Plug-In . SVG Version: 6.00 Build 0)  -->
<svg version="1.1" id="Capa_2_1_" xmlns="http://www.w3.org/2000/svg" xmlns:xlink="http://www.w3.org/1999/xlink" x="0px" y="0px"
	 viewBox="0 0 500 500" style="enable-background:new 0 0 500 500;" xml:space="preserve">
<style type="text/css">
	.st0{fill:#33ABB2;}
</style>
<path class="st0" d="M451.1,298.6c-5,16.2-16.9,30.5-25.5,40c0,0,25.5-63.7,12.7-105.5c-1.5-4.9-32.7,151-173.7,151
	c-83.9,0-141.9-62.5-141.9-146.4s58-148.3,141.9-148.3c71.7,0,131.8,46,147.7,112.8c0.7,2.8-3.1-131-150.5-131
	c-40,0-67.3,7.3-81.4,13.2c-0.7,0.6-1.5,1-2.3,1.4c0-0.3,0.8-0.7,2.3-1.4c25.2-15.9,54.3-24.3,84.1-24.3
	c112.8,0,169.8,100.5,171.3,103.3c0.5,0.8-26.7-128.6-171.3-128.6c-112,0-207.4,96.3-207.4,208.3s95.4,202.8,207.4,202.8
	C445.6,445.9,451.5,297.2,451.1,298.6z"/>
</svg>
